<svg width="40" height="37" viewBox="0 0 40 37" fill="none" xmlns="http://www.w3.org/2000/svg">
<path d="M38.0645 1.16532H32.1394C31.8723 0.488853 31.1626 0 30.3226 0H21.2903C20.4503 0 19.7406 0.488853 19.4735 1.16532H13.5484C12.4813 1.16532 11.6129 1.94958 11.6129 2.91331V10.4879H9.41548C8.63032 10.4879 7.85548 10.6738 7.17419 11.0257L3.69935 12.8185H0V23.3064H4.32064L7.05355 24.9519C7.79806 25.4005 8.66452 25.6371 9.55871 25.6371H11.6129V34.377C11.6129 35.3407 12.4813 36.125 13.5484 36.125H38.0645C39.1316 36.125 40 35.3407 40 34.377V2.91331C40 1.94958 39.1316 1.16532 38.0645 1.16532ZM15.4839 15.1492H16.7742C18.1974 15.1492 19.3548 14.1039 19.3548 12.8185C19.3548 11.5332 18.1974 10.4879 16.7742 10.4879H15.4839V4.66129H19.4735C19.7406 5.33776 20.4503 5.82661 21.2903 5.82661H30.3226C31.1626 5.82661 31.8723 5.33776 32.1394 4.66129H36.129V32.629H15.4839V15.1492ZM20.6452 1.74798C20.6452 1.42635 20.9342 1.16532 21.2903 1.16532H30.3226C30.6787 1.16532 30.9677 1.42635 30.9677 1.74798V4.07863C30.9677 4.40026 30.6787 4.66129 30.3226 4.66129H21.2903C20.9342 4.66129 20.6452 4.40026 20.6452 4.07863V1.74798ZM12.9032 2.91331C12.9032 2.59168 13.1923 2.33065 13.5484 2.33065H19.3548V3.49597H14.1935V10.4879H12.9032V2.91331ZM9.55871 24.4718C8.92 24.4718 8.30129 24.3028 7.76968 23.9823L4.71161 22.1411H1.29032V13.9839H4.04258L7.81484 12.0372C8.30129 11.7861 8.85484 11.6532 9.41548 11.6532H16.7742C17.4858 11.6532 18.0645 12.1759 18.0645 12.8185C18.0645 13.4612 17.4858 13.9839 16.7742 13.9839H9.03226V14.5665C9.03226 16.1729 7.58516 17.4798 5.80645 17.4798V18.6452C8.07806 18.6452 9.96258 17.1232 10.2768 15.1492H11.6129V24.4718H9.55871ZM38.7097 34.377C38.7097 34.6986 38.4206 34.9597 38.0645 34.9597H13.5484C13.1923 34.9597 12.9032 34.6986 12.9032 34.377V15.1492H14.1935V33.7944H37.4194V3.49597H32.2581V2.33065H38.0645C38.4206 2.33065 38.7097 2.59168 38.7097 2.91331V34.377Z" fill="white"/>
</svg>
