<svg width="40" height="40" viewBox="0 0 40 40" fill="none" xmlns="http://www.w3.org/2000/svg">
<g clip-path="url(#clip0_3052_930)">
<path d="M17.5 7.5C17.8315 7.5 18.1495 7.3683 18.3839 7.13388C18.6183 6.89946 18.75 6.58152 18.75 6.25C18.75 5.91848 18.6183 5.60054 18.3839 5.36612C18.1495 5.1317 17.8315 5 17.5 5H10C9.66848 5 9.35054 5.1317 9.11612 5.36612C8.8817 5.60054 8.75 5.91848 8.75 6.25C8.75 6.58152 8.8817 6.89946 9.11612 7.13388C9.35054 7.3683 9.66848 7.5 10 7.5H17.5Z" fill="white"/>
<path d="M26.25 11.05V6.05C26.2566 5.25892 26.1067 4.47435 25.8089 3.74143C25.5111 3.00852 25.0713 2.34172 24.5148 1.77943C23.9583 1.21714 23.2961 0.770446 22.5664 0.465059C21.8366 0.159672 21.0536 0.00162065 20.2625 0L7.2375 0C5.65053 0.00330276 4.12951 0.635188 3.00735 1.75735C1.88519 2.87951 1.2533 4.40053 1.25 5.9875V34.0125C1.2533 35.5995 1.88519 37.1205 3.00735 38.2427C4.12951 39.3648 5.65053 39.9967 7.2375 40H20.2625C21.8495 39.9967 23.3705 39.3648 24.4927 38.2427C25.6148 37.1205 26.2467 35.5995 26.25 34.0125V33.95C28.4754 32.9753 30.3685 31.3733 31.6979 29.3398C33.0273 27.3063 33.7353 24.9295 33.7353 22.5C33.7353 20.0705 33.0273 17.6937 31.6979 15.6602C30.3685 13.6267 28.4754 12.0247 26.25 11.05ZM20.2625 37.5H7.2375C6.31256 37.5 5.4255 37.1326 4.77147 36.4785C4.11743 35.8245 3.75 34.9374 3.75 34.0125V5.9875C3.75 5.06256 4.11743 4.1755 4.77147 3.52147C5.4255 2.86743 6.31256 2.5 7.2375 2.5H20.2625C21.1874 2.5 22.0745 2.86743 22.7285 3.52147C23.3826 4.1755 23.75 5.06256 23.75 5.9875V10.25C22.9269 10.0846 22.0895 10.0008 21.25 10C17.9704 9.99966 14.8242 11.2986 12.5 13.6125V12.5C12.5 12.1685 12.3683 11.8505 12.1339 11.6161C11.8995 11.3817 11.5815 11.25 11.25 11.25C10.9185 11.25 10.6005 11.3817 10.3661 11.6161C10.1317 11.8505 10 12.1685 10 12.5V32.5C10 32.8315 10.1317 33.1495 10.3661 33.3839C10.6005 33.6183 10.9185 33.75 11.25 33.75C11.5815 33.75 11.8995 33.6183 12.1339 33.3839C12.3683 33.1495 12.5 32.8315 12.5 32.5V31.3875C14.8242 33.7014 17.9704 35.0003 21.25 35C22.0599 34.9977 22.8677 34.9182 23.6625 34.7625C23.4918 35.5376 23.0619 36.2312 22.4437 36.729C21.8256 37.2267 21.0561 37.4987 20.2625 37.5ZM21.25 32.5C19.4621 32.4984 17.7073 32.0175 16.1684 31.1073C14.6294 30.1971 13.3627 28.891 12.5 27.325V17.675C13.3513 16.1297 14.5962 14.8371 16.1084 13.9284C17.6207 13.0197 19.3464 12.5273 21.1105 12.5011C22.8746 12.4749 24.6142 12.9159 26.1527 13.7793C27.6913 14.6427 28.9741 15.8978 29.8708 17.4171C30.7676 18.9365 31.2464 20.666 31.2587 22.4303C31.271 24.1945 30.8164 25.9306 29.9409 27.4623C29.0654 28.994 27.8003 30.2668 26.2739 31.1516C24.7475 32.0364 23.0143 32.5016 21.25 32.5Z" fill="white"/>
<path d="M21.25 18.75H23.75C24.0815 18.75 24.3995 18.6183 24.6339 18.3839C24.8683 18.1495 25 17.8315 25 17.5C25 17.1685 24.8683 16.8505 24.6339 16.6161C24.3995 16.3817 24.0815 16.25 23.75 16.25H22.5C22.5 15.9185 22.3683 15.6005 22.1339 15.3661C21.8995 15.1317 21.5815 15 21.25 15C20.9185 15 20.6005 15.1317 20.3661 15.3661C20.1317 15.6005 20 15.9185 20 16.25V16.475C19.1733 16.775 18.4783 17.356 18.0365 18.1164C17.5948 18.8769 17.4343 19.7684 17.5833 20.6351C17.7322 21.5019 18.181 22.2887 18.8513 22.8581C19.5215 23.4275 20.3706 23.7432 21.25 23.75C21.5815 23.75 21.8995 23.8817 22.1339 24.1161C22.3683 24.3505 22.5 24.6685 22.5 25C22.5 25.3315 22.3683 25.6495 22.1339 25.8839C21.8995 26.1183 21.5815 26.25 21.25 26.25H18.75C18.4185 26.25 18.1005 26.3817 17.8661 26.6161C17.6317 26.8505 17.5 27.1685 17.5 27.5C17.5 27.8315 17.6317 28.1495 17.8661 28.3839C18.1005 28.6183 18.4185 28.75 18.75 28.75H20C20 29.0815 20.1317 29.3995 20.3661 29.6339C20.6005 29.8683 20.9185 30 21.25 30C21.5815 30 21.8995 29.8683 22.1339 29.6339C22.3683 29.3995 22.5 29.0815 22.5 28.75V28.525C23.3267 28.225 24.0217 27.644 24.4635 26.8836C24.9052 26.1231 25.0657 25.2316 24.9167 24.3649C24.7678 23.4981 24.319 22.7113 23.6487 22.1419C22.9785 21.5725 22.1294 21.2568 21.25 21.25C20.9185 21.25 20.6005 21.1183 20.3661 20.8839C20.1317 20.6495 20 20.3315 20 20C20 19.6685 20.1317 19.3505 20.3661 19.1161C20.6005 18.8817 20.9185 18.75 21.25 18.75Z" fill="white"/>
<path d="M37.4994 6.24999H34.2619L34.6369 5.88749C34.8723 5.65211 35.0045 5.33286 35.0045 4.99999C35.0045 4.66711 34.8723 4.34787 34.6369 4.11249C34.4016 3.87711 34.0823 3.74487 33.7494 3.74487C33.4166 3.74487 33.0973 3.87711 32.8619 4.11249L30.3619 6.61249C30.2448 6.72869 30.1518 6.86694 30.0883 7.01927C30.0249 7.17159 29.9922 7.33497 29.9922 7.49999C29.9922 7.665 30.0249 7.82838 30.0883 7.98071C30.1518 8.13303 30.2448 8.27128 30.3619 8.38749L32.8619 10.8875C32.9781 11.0046 33.1164 11.0976 33.2687 11.1611C33.421 11.2246 33.5844 11.2572 33.7494 11.2572C33.9144 11.2572 34.0778 11.2246 34.2302 11.1611C34.3825 11.0976 34.5207 11.0046 34.6369 10.8875C34.7541 10.7713 34.8471 10.633 34.9106 10.4807C34.974 10.3284 35.0067 10.165 35.0067 9.99999C35.0067 9.83497 34.974 9.67159 34.9106 9.51927C34.8471 9.36694 34.7541 9.22869 34.6369 9.11249L34.2619 8.74999H37.4994C37.831 8.74999 38.1489 8.61829 38.3833 8.38387C38.6177 8.14945 38.7494 7.83151 38.7494 7.49999C38.7494 7.16847 38.6177 6.85052 38.3833 6.6161C38.1489 6.38168 37.831 6.24999 37.4994 6.24999Z" fill="white"/>
</g>
<defs>
<clipPath id="clip0_3052_930">
<rect width="40" height="40" fill="white"/>
</clipPath>
</defs>
</svg>
