<svg width="34" height="34" viewBox="0 0 34 34" fill="none" xmlns="http://www.w3.org/2000/svg">
<path d="M8.28452 33.2745C6.09836 33.2653 4.00336 32.3974 2.45119 30.8578C1.67513 30.0975 1.05859 29.1899 0.637695 28.1882C0.216797 27.1866 0 26.111 0 25.0245C0 23.938 0.216797 22.8625 0.637695 21.8608C1.05859 20.8592 1.67513 19.9516 2.45119 19.1912L8.45119 13.1912C9.21157 12.4151 10.1192 11.7986 11.1208 11.3777C12.1225 10.9568 13.198 10.74 14.2845 10.74C15.371 10.74 16.4466 10.9568 17.4482 11.3777C18.4499 11.7986 19.3575 12.4151 20.1179 13.1912C20.3586 13.5121 20.4754 13.9091 20.447 14.3093C20.4186 14.7095 20.2467 15.086 19.963 15.3697C19.6793 15.6534 19.3029 15.8252 18.9027 15.8537C18.5025 15.8821 18.1055 15.7652 17.7845 15.5245C16.8499 14.6084 15.5933 14.0952 14.2845 14.0952C12.9758 14.0952 11.7192 14.6084 10.7845 15.5245L4.78452 21.5245C3.85627 22.4528 3.33478 23.7118 3.33478 25.0245C3.33478 26.3373 3.85627 27.5963 4.78452 28.5245C5.71278 29.4528 6.97177 29.9743 8.28452 29.9743C9.59728 29.9743 10.8563 29.4528 11.7845 28.5245L15.5345 24.6078C15.8555 24.3671 16.2525 24.2503 16.6527 24.2787C17.0529 24.3071 17.4293 24.479 17.713 24.7627C17.9967 25.0464 18.1686 25.4229 18.197 25.823C18.2254 26.2232 18.1086 26.6202 17.8679 26.9412L14.1179 30.8578C12.5657 32.3974 10.4707 33.2653 8.28452 33.2745Z" fill="white"/>
<path d="M19.1178 22.4411C16.9317 22.4319 14.8367 21.5639 13.2845 20.0244C13.0438 19.7035 12.9269 19.3064 12.9554 18.9063C12.9838 18.5061 13.1556 18.1296 13.4393 17.8459C13.723 17.5622 14.0995 17.3904 14.4997 17.3619C14.8999 17.3335 15.2969 17.4504 15.6178 17.6911C16.5525 18.6072 17.8091 19.1204 19.1178 19.1204C20.4266 19.1204 21.6832 18.6072 22.6178 17.6911L28.6178 11.6911C29.5461 10.7628 30.0676 9.50383 30.0676 8.19107C30.0676 6.87832 29.5461 5.61933 28.6178 4.69107C27.6896 3.76282 26.4306 3.24133 25.1178 3.24133C23.8051 3.24133 22.5461 3.76282 21.6178 4.69107L17.8678 8.60774C17.5469 8.84846 17.1499 8.96532 16.7497 8.93688C16.3495 8.90844 15.973 8.7366 15.6893 8.45292C15.4056 8.16923 15.2338 7.79274 15.2054 7.39256C15.1769 6.99237 15.2938 6.59536 15.5345 6.27441L19.2845 2.35774C20.8369 0.836376 22.927 -0.0108726 25.1006 0.000105365C27.2742 0.0110833 29.3556 0.879401 30.8925 2.41637C32.4295 3.95334 33.2978 6.03476 33.3088 8.20833C33.3198 10.3819 32.4725 12.472 30.9512 14.0244L24.9512 20.0244C23.399 21.5639 21.304 22.4319 19.1178 22.4411Z" fill="white"/>
</svg>
