<svg width="40" height="40" viewBox="0 0 40 40" fill="none" xmlns="http://www.w3.org/2000/svg">
<path d="M26.1546 16.6668H26.1022V13.9086C26.1022 10.9367 23.6843 8.5188 20.7126 8.5188H19.2887C16.3166 8.5188 13.8988 10.9368 13.8988 13.9086V16.6668H13.8464C12.9777 16.6668 12.2734 17.3715 12.2734 18.2402V28.2715C12.2734 29.1404 12.9778 29.8449 13.8464 29.8449H26.155C27.0238 29.8449 27.728 29.1404 27.728 28.2715V18.2402C27.7276 17.3715 27.0232 16.6668 26.1546 16.6668ZM21.5733 24.6475C21.5733 25.5163 20.869 26.2205 20.0003 26.2205C19.1315 26.2205 18.4273 25.5162 18.4273 24.6475V22.6811C18.4273 21.8123 19.1315 21.1082 20.0003 21.1082C20.8691 21.1082 21.5733 21.8125 21.5733 22.6811V24.6475ZM23.0222 16.6668H16.9784V13.9086C16.9784 12.6349 18.0146 11.5988 19.2884 11.5988H20.7123C21.9858 11.5988 23.0222 12.6348 23.0222 13.9086V16.6668Z" fill="white"/>
<path d="M35.2987 32.8874L35.4737 32.6742C38.4348 29.073 40 24.6902 40 20C40 15.2339 38.3877 10.7949 35.337 7.1632L35.1671 6.9611L35.2588 6.7132C35.4243 6.2659 35.5082 5.795 35.5082 5.3146C35.5082 3.0901 33.6985 1.2804 31.4742 1.2804C30.6621 1.2804 29.8792 1.521 29.2098 1.9755L28.9919 2.1236L28.755 2.0083C26.023 0.6756 23.0773 0 20 0C16.8213 0 13.7901 0.7176 10.9905 2.1331L10.7379 2.2607L10.5119 2.0905C9.8084 1.5605 8.97 1.2801 8.0872 1.2801C5.8629 1.2801 4.0534 3.0898 4.0534 5.3143C4.0534 5.9132 4.1822 6.4905 4.4363 7.03L4.5572 7.2869L4.3795 7.5084C1.5145 11.0766 0 15.3964 0 20C0 24.6902 1.5652 29.073 4.5262 32.6742L4.7012 32.8874L4.5931 33.1411C4.3803 33.641 4.2723 34.1722 4.2723 34.7198C4.2723 36.9439 6.082 38.7536 8.3063 38.7536C9.164 38.7536 9.9834 38.4871 10.6763 37.9831L10.8987 37.8215L11.1453 37.9434C13.9045 39.308 16.8837 40 20 40C23.1163 40 26.0955 39.308 28.8546 37.9434L29.1012 37.8215L29.3238 37.9831C30.0166 38.4871 30.8361 38.7536 31.6936 38.7536C33.9179 38.7536 35.7278 36.9439 35.7278 34.7198C35.7278 34.1719 35.6198 33.641 35.407 33.1411L35.2987 32.8874ZM33.5038 30.7572L33.304 31.0074L33.0012 30.9039C32.5791 30.7593 32.1391 30.6855 31.6935 30.6855C29.4694 30.6855 27.6595 32.4953 27.6595 34.7198C27.6595 34.8583 27.6668 34.9986 27.6809 35.1369L27.7137 35.4553L27.4247 35.5936C25.0936 36.7081 22.5957 37.2727 19.9999 37.2727C17.4041 37.2727 14.906 36.7081 12.5751 35.5936L12.2861 35.4553L12.319 35.1369C12.3331 34.9986 12.3404 34.8583 12.3404 34.7198C12.3404 32.4953 10.5307 30.6855 8.3064 30.6855C7.8608 30.6855 7.4209 30.759 6.9987 30.9039L6.6959 31.0074L6.4961 30.7572C4.0305 27.6685 2.7273 23.9484 2.7273 20C2.7273 16.0907 4.0066 12.4004 6.4269 9.3286L6.6189 9.0848L6.9158 9.1747C7.2954 9.2898 7.6895 9.3481 8.0872 9.3481C10.3115 9.3481 12.1212 7.5384 12.1212 5.3143C12.1212 5.2039 12.1159 5.0878 12.1046 4.9602L12.0779 4.6513L12.3557 4.5135C14.7478 3.3282 17.3197 2.7272 19.9999 2.7272C22.5152 2.7272 24.9432 3.2595 27.2165 4.309L27.5205 4.4492L27.4767 4.781C27.4528 4.9631 27.4406 5.1424 27.4406 5.3142C27.4406 7.5383 29.2503 9.348 31.4745 9.348C31.983 9.348 32.4804 9.2535 32.953 9.0672L33.2645 8.9442L33.4742 9.2053C35.9239 12.2572 37.2727 16.0907 37.2727 19.9997C37.2727 23.9484 35.9695 27.6686 33.5038 30.7572Z" fill="white"/>
</svg>
