<svg width="32" height="31" viewBox="0 0 32 31" fill="none" xmlns="http://www.w3.org/2000/svg">
<g clip-path="url(#clip0_2493_2395)">
<path d="M26.2066 16.9995C26.5279 14.9422 26.2103 12.8359 25.2965 10.9649C24.3827 9.09391 22.9168 7.54837 21.0967 6.53697C21.0967 6.50985 21.1045 6.48531 21.1045 6.45818C21.1045 5.10434 20.5667 3.80595 19.6094 2.84864C18.6521 1.89133 17.3537 1.35352 15.9998 1.35352C14.646 1.35352 13.3476 1.89133 12.3903 2.84864C11.433 3.80595 10.8952 5.10434 10.8952 6.45818C10.8952 6.48402 10.9029 6.50985 10.9029 6.53568C9.0826 7.54716 7.61655 9.0929 6.70275 10.9642C5.78895 12.8354 5.47143 14.942 5.79307 16.9995C4.97657 17.1891 4.21945 17.5771 3.58876 18.1293C2.95806 18.6814 2.47328 19.3806 2.17734 20.1648C1.88141 20.949 1.78346 21.7942 1.89217 22.6253C2.00088 23.4565 2.3129 24.248 2.80059 24.9297C3.28827 25.6115 3.93657 26.1624 4.68805 26.5337C5.43953 26.9051 6.27099 27.0854 7.10879 27.0586C7.94658 27.0318 8.76484 26.7988 9.49109 26.3803C10.2173 25.9617 10.8291 25.3705 11.2723 24.6591C12.7299 25.4266 14.3525 25.8277 15.9998 25.8277C17.6472 25.8277 19.2697 25.4266 20.7273 24.6591C21.1707 25.3699 21.7824 25.9604 22.5085 26.3784C23.2345 26.7964 24.0524 27.0289 24.8897 27.0554C25.727 27.0819 26.558 26.9015 27.309 26.5303C28.06 26.159 28.7078 25.6083 29.1953 24.927C29.6827 24.2456 29.9946 23.4546 30.1033 22.624C30.2121 21.7933 30.1144 20.9486 29.8189 20.1647C29.5234 19.3809 29.0391 18.6819 28.409 18.1298C27.779 17.5777 27.0225 17.1895 26.2066 16.9995ZM15.9998 2.64906C16.7529 2.64906 17.489 2.87235 18.1152 3.2907C18.7414 3.70906 19.2294 4.30368 19.5177 4.9994C19.8059 5.69511 19.8814 6.46068 19.7346 7.19929C19.5878 7.9379 19.2252 8.61639 18.6928 9.14898C18.1604 9.68157 17.482 10.0443 16.7435 10.1914C16.0049 10.3385 15.2393 10.2632 14.5435 9.97524C13.8477 9.68723 13.2529 9.19937 12.8343 8.57335C12.4158 7.94732 12.1922 7.21125 12.192 6.45818C12.193 5.4486 12.5945 4.48066 13.3084 3.76677C14.0223 3.05289 14.9902 2.65008 15.9998 2.64906ZM6.95815 25.7673C6.20509 25.7673 5.46893 25.544 4.84277 25.1257C4.2166 24.7073 3.72854 24.1127 3.4403 23.417C3.15205 22.7213 3.07657 21.9557 3.22339 21.2171C3.37021 20.4785 3.73274 19.8 4.26515 19.2674C4.79756 18.7348 5.47593 18.372 6.21449 18.225C6.95305 18.0779 7.71864 18.1531 8.41445 18.4411C9.11026 18.7291 9.70506 19.217 10.1236 19.843C10.5422 20.469 10.7657 21.2051 10.766 21.9582C10.765 22.9678 10.3634 23.9357 9.64956 24.6496C8.93568 25.3635 7.96774 25.7663 6.95815 25.7673ZM11.8019 23.494C11.9681 22.9987 12.0561 22.4806 12.0628 21.9582C12.0604 20.6247 11.5363 19.3451 10.6026 18.3931C9.66896 17.4411 8.39981 16.8922 7.06665 16.8638C6.99484 16.4126 6.95684 15.9567 6.95298 15.4998C6.95336 13.984 7.33612 12.4926 8.06583 11.1639C8.79555 9.83523 9.84864 8.71207 11.1277 7.89839C11.4326 8.9549 12.0727 9.88365 12.9515 10.5447C13.8303 11.2057 14.9002 11.5631 15.9998 11.5631C17.0995 11.5631 18.1693 11.2057 19.0481 10.5447C19.9269 9.88365 20.567 8.9549 20.872 7.89839C22.151 8.71207 23.2041 9.83523 23.9338 11.1639C24.6635 12.4926 25.0463 13.984 25.0466 15.4998C25.0428 15.9567 25.0048 16.4126 24.933 16.8638C23.5998 16.8922 22.3307 17.4411 21.397 18.3931C20.4633 19.3451 19.9392 20.6247 19.9368 21.9582C19.9437 22.4801 20.0317 22.9978 20.1977 23.4927C18.8984 24.1581 17.4596 24.5051 15.9998 24.5051C14.5401 24.5051 13.1012 24.1594 11.8019 23.494ZM25.0415 25.766C24.2884 25.766 23.5522 25.5427 22.926 25.1243C22.2998 24.7059 21.8117 24.1112 21.5235 23.4154C21.2353 22.7196 21.1599 21.954 21.3068 21.2153C21.4537 20.4767 21.8164 19.7982 22.3489 19.2656C22.8815 18.7331 23.56 18.3704 24.2986 18.2235C25.0373 18.0766 25.8029 18.152 26.4987 18.4402C27.1945 18.7284 27.7892 19.2165 28.2076 19.8427C28.626 20.4689 28.8493 21.2051 28.8493 21.9582C28.8483 22.9678 28.4468 23.9357 27.7329 24.6496C27.019 25.3635 26.0511 25.765 25.0415 25.766Z" fill="#223256"/>
</g>
<defs>
<clipPath id="clip0_2493_2395">
<rect width="31" height="31" fill="white" transform="translate(0.5)"/>
</clipPath>
</defs>
</svg>
