<svg width="32" height="32" viewBox="0 0 32 32" fill="none" xmlns="http://www.w3.org/2000/svg">
<path d="M1.65767 28.6699C1.65767 28.6699 1.91158 28.6699 2.22492 28.6699C2.53826 28.6699 2.79218 29.0156 2.79218 29.4417V30.3423C2.79218 30.9821 3.31004 31.5 3.94985 31.5C4.58965 31.5 5.10751 30.9821 5.10751 30.3423V29.4417C5.10751 29.0156 5.45327 28.6699 5.87929 28.6699H30.3423C30.9821 28.6699 31.5 28.152 31.5 27.5122C31.5 26.8724 30.9821 26.3546 30.3423 26.3546H5.87929C5.45327 26.3546 5.10751 26.0088 5.10751 25.5828V1.65767C5.10751 1.01786 4.58965 0.5 3.94985 0.5C3.31004 0.5 2.79218 1.01786 2.79218 1.65767V25.5828C2.79218 26.0088 2.53826 26.3546 2.22492 26.3546H1.65767C1.01786 26.3546 0.5 26.8724 0.5 27.5122C0.5 28.152 1.01863 28.6699 1.65767 28.6699Z" fill="#223256"/>
<path d="M11.8121 16.6108C9.97369 17.2984 9.0329 19.3576 9.71592 21.2083C10.2353 22.5967 11.5798 23.5298 13.0616 23.5298C13.4891 23.5298 13.9074 23.4541 14.2964 23.3098C14.3643 23.2844 20.9762 20.8 22.9998 13.2049L24.781 13.2019C25.3074 13.2019 25.7681 12.9464 26.0159 12.5181C26.2628 12.0897 26.2543 11.5618 25.9904 11.1034L21.1297 2.71725C20.8658 2.2619 20.4135 1.99023 19.9196 1.99023C19.4233 1.99023 18.9703 2.26344 18.7079 2.72034L13.8743 11.1242C13.6119 11.5803 13.6026 12.1075 13.8503 12.5358C14.0981 12.9641 14.5604 13.2196 15.0883 13.2196H15.346C14.0093 15.6893 11.8885 16.5792 11.8121 16.6108ZM18.0419 12.8437C18.207 12.383 18.1468 11.8975 17.8744 11.5109C17.6066 11.1304 17.1597 10.9027 16.6727 10.9012L19.9227 5.25177L23.1896 10.8896L22.495 10.8911C21.7256 10.8935 21.041 11.4414 20.8666 12.1931C19.3153 18.8351 13.5509 21.1164 13.4961 21.1373C12.8787 21.3688 12.1208 21.0254 11.8869 20.4018C11.6461 19.7488 11.9765 19.0218 12.6525 18.7687C12.8077 18.7054 16.4852 17.1742 18.0419 12.8437Z" fill="#223256"/>
</svg>
