<svg width="32" height="32" viewBox="0 0 32 32" fill="none" xmlns="http://www.w3.org/2000/svg">
<g clip-path="url(#clip0_2493_2401)">
<path d="M15.1644 0.5V5.41926H16.8353V0.5H15.1642H15.1644ZM8.34155 1.97831L6.97259 2.93681L9.79367 6.96541L11.1619 6.00689L8.34155 1.97831ZM23.6578 1.97831L20.8375 6.00692L22.2059 6.96544L25.027 2.93681L23.658 1.97831H23.6578ZM15.9995 6.7652C11.9119 6.7652 8.59841 9.24735 8.59841 12.3097L12.8034 25.0442H19.1963L23.4009 12.3097C23.4009 9.2474 20.0876 6.7652 15.9999 6.7652H15.9995ZM2.70761 8.24155L2.13672 9.81258L6.75698 11.4947L7.32999 9.92441L2.70751 8.24155H2.70761ZM29.2917 8.24155L24.6692 9.92454L25.2403 11.495L29.8628 9.81261L29.2917 8.24155ZM7.10679 15.4234L2.35604 16.6977L2.7871 18.3105L7.53785 17.0381L7.10687 15.4234H7.10679ZM24.8925 15.4234L24.4618 17.038L29.2125 18.3102L29.6433 16.6974L24.8925 15.4234V15.4234ZM12.7101 25.9725V28.186H19.2896V25.9728H12.7102L12.7101 25.9725ZM12.7101 29.2864V31.5H19.2896V29.2868H12.7102L12.7101 29.2864Z" fill="#223256"/>
</g>
<defs>
<clipPath id="clip0_2493_2401">
<rect width="31" height="31" fill="white" transform="translate(0.5 0.5)"/>
</clipPath>
</defs>
</svg>
