<svg width="28" height="29" viewBox="0 0 28 29" fill="none" xmlns="http://www.w3.org/2000/svg">
<path d="M25.7219 10.7219C25.2375 11.3031 24.4625 11.5938 23.6875 11.5938H20.975L20.2969 12.2719C20.5875 12.95 20.6844 13.725 20.6844 14.5C20.6844 18.2781 17.6812 21.2812 13.9031 21.2812C10.125 21.2812 7.12187 18.2781 7.12187 14.5C7.12187 10.7219 10.125 7.71875 13.9031 7.71875C14.6781 7.71875 15.4531 7.9125 16.1313 8.10625L16.9062 7.525V4.8125C16.9062 4.0375 17.1969 3.2625 17.7781 2.77813L18.7469 1.80938C17.1969 1.22813 15.6469 0.9375 14 0.9375C6.54063 0.9375 0.4375 7.04063 0.4375 14.5C0.4375 21.9594 6.54063 28.0625 14 28.0625C21.4594 28.0625 27.5625 21.9594 27.5625 14.5C27.5625 12.8531 27.2719 11.3031 26.6906 9.75313L25.7219 10.7219Z" fill="#223256"/>
</svg>
