<svg width="32" height="31" viewBox="0 0 32 31" fill="none" xmlns="http://www.w3.org/2000/svg">
<g clip-path="url(#clip0_2493_2324)">
<path d="M1.58789 14.8203C1.58789 16.71 1.96009 18.5811 2.68324 20.327C3.40638 22.0728 4.46631 23.6591 5.80251 24.9953C7.13871 26.3315 8.72501 27.3914 10.4708 28.1146C12.2167 28.8377 14.0878 29.2099 15.9775 29.2099C17.8672 29.2099 19.7383 28.8377 21.4842 28.1146C23.23 27.3914 24.8163 26.3315 26.1525 24.9953C27.4887 23.6591 28.5486 22.0728 29.2718 20.327C29.9949 18.5811 30.3671 16.71 30.3671 14.8203C30.3671 12.9306 29.9949 11.0594 29.2718 9.31361C28.5486 7.56779 27.4887 5.98149 26.1525 4.64529C24.8163 3.30909 23.23 2.24915 21.4842 1.52601C19.7383 0.802863 17.8672 0.430664 15.9775 0.430664C14.0878 0.430664 12.2167 0.802863 10.4708 1.52601C8.72501 2.24915 7.13871 3.30909 5.80251 4.64529C4.46631 5.98149 3.40638 7.56779 2.68324 9.31361C1.96009 11.0594 1.58789 12.9306 1.58789 14.8203Z" fill="#4FACFE"/>
<path d="M16.0001 29.663C7.81951 29.663 1.15723 23.0007 1.15723 14.8428C1.15723 6.68494 7.81951 0 16.0001 0C24.1806 0 30.8429 6.66228 30.8429 14.8428C30.8429 23.0234 24.158 29.663 16.0001 29.663ZM16.0001 0.906433C8.31805 0.906433 2.06366 7.16082 2.06366 14.8428C2.06366 22.5249 8.31805 28.7566 16.0001 28.7566C23.6821 28.7566 29.9365 22.5022 29.9365 14.8428C29.9138 7.16082 23.6594 0.906433 16.0001 0.906433Z" fill="#223256"/>
<path d="M3.69531 14.8202C3.69531 18.0777 4.98932 21.2017 7.29267 23.5051C9.59603 25.8084 12.72 27.1024 15.9775 27.1024C19.2349 27.1024 22.3589 25.8084 24.6623 23.5051C26.9656 21.2017 28.2596 18.0777 28.2596 14.8202C28.2596 11.5628 26.9656 8.4388 24.6623 6.13545C22.3589 3.8321 19.2349 2.53809 15.9775 2.53809C12.72 2.53809 9.59603 3.8321 7.29267 6.13545C4.98932 8.4388 3.69531 11.5628 3.69531 14.8202Z" fill="white"/>
<path d="M16 27.5784C8.97517 27.5784 3.26465 21.8679 3.26465 14.843C3.26465 7.81815 8.95251 2.08496 16 2.08496C23.0249 2.08496 28.7354 7.79549 28.7354 14.8203C28.7354 21.8452 23.0249 27.5784 16 27.5784ZM16 2.99139C9.47371 2.99139 4.17108 8.29402 4.17108 14.8203C4.17108 21.3467 9.47371 26.6493 16 26.6493C22.5263 26.6493 27.829 21.3467 27.829 14.8203C27.829 8.31669 22.5263 2.99139 16 2.99139Z" fill="#223256"/>
<path d="M8.47665 22.5247C8.36335 22.5247 8.25005 22.4793 8.1594 22.3887C7.97812 22.2074 7.97812 21.9355 8.1594 21.7542L15.7508 14.1628C15.9321 13.9815 16.204 13.9815 16.3853 14.1628C16.5666 14.3441 16.5666 14.616 16.3853 14.7973L8.79391 22.3887C8.70326 22.4793 8.58996 22.5247 8.47665 22.5247Z" fill="#223256"/>
<path d="M4.60156 25.4935C4.60156 25.928 4.68714 26.3582 4.85341 26.7596C5.01967 27.161 5.26337 27.5258 5.57059 27.833C5.87781 28.1402 6.24254 28.3839 6.64394 28.5502C7.04535 28.7164 7.47557 28.802 7.91004 28.802C8.34452 28.802 8.77474 28.7164 9.17614 28.5502C9.57755 28.3839 9.94227 28.1402 10.2495 27.833C10.5567 27.5258 10.8004 27.161 10.9667 26.7596C11.1329 26.3582 11.2185 25.928 11.2185 25.4935C11.2185 24.6161 10.87 23.7745 10.2495 23.1541C9.62903 22.5336 8.78751 22.1851 7.91004 22.1851C7.03258 22.1851 6.19105 22.5336 5.57059 23.1541C4.95013 23.7745 4.60156 24.6161 4.60156 25.4935Z" fill="#4FACFE"/>
<path d="M7.91013 29.2551C5.848 29.2551 4.14844 27.5782 4.14844 25.4934C4.14844 23.4086 5.848 21.7544 7.91013 21.7544C9.97227 21.7544 11.6718 23.4313 11.6718 25.5161C11.6718 27.6009 9.99493 29.2551 7.91013 29.2551ZM7.91013 22.6608C6.34654 22.6608 5.05487 23.9298 5.05487 25.5161C5.05487 27.1023 6.32388 28.3714 7.91013 28.3714C9.47373 28.3714 10.7654 27.1023 10.7654 25.5161C10.7654 23.9298 9.49639 22.6608 7.91013 22.6608Z" fill="#223256"/>
<path d="M13.1445 29.9122C13.1445 30.2521 13.4165 30.5467 13.779 30.5467H18.9457C19.2856 30.5467 19.5802 30.2748 19.5802 29.9122V28.8472H13.1445V29.9122Z" fill="#4FACFE"/>
<path d="M13.7791 31C13.1899 31 12.6914 30.5242 12.6914 29.9123V28.8473C12.6914 28.598 12.8954 28.394 13.1446 28.394H19.5803C19.8296 28.394 20.0335 28.598 20.0335 28.8473V29.9123C20.0335 30.5015 19.5576 31 18.9458 31H13.7791ZM13.5978 29.9123C13.5978 30.003 13.6885 30.0936 13.7791 30.0936H18.9458C19.0364 30.0936 19.1271 30.003 19.1271 29.9123V29.3005H13.5978V29.9123Z" fill="#223256"/>
<path d="M19.5802 23.7937C19.5802 23.4538 19.3083 23.1592 18.9457 23.1592H13.779C13.4391 23.1592 13.1445 23.4311 13.1445 23.7937V24.8587H19.5802V23.7937Z" fill="#4FACFE"/>
<path d="M19.5803 25.312H13.1446C12.8954 25.312 12.6914 25.1081 12.6914 24.8588V23.7938C12.6914 23.2046 13.1899 22.7061 13.7791 22.7061H18.9458C19.535 22.7061 20.0335 23.2046 20.0335 23.7938V24.8588C20.0335 25.1081 19.8296 25.312 19.5803 25.312ZM13.5978 24.4056H19.1271V23.7938C19.1271 23.7031 19.0364 23.6125 18.9458 23.6125H13.7791C13.6885 23.6125 13.5978 23.7031 13.5978 23.7938V24.4056Z" fill="#223256"/>
<path d="M13.1445 24.8589H19.5802V26.853H13.1445V24.8589Z" fill="#4FACFE"/>
<path d="M19.5803 27.3063H13.1446C12.8954 27.3063 12.6914 27.1024 12.6914 26.8531V24.859C12.6914 24.6097 12.8954 24.4058 13.1446 24.4058H19.5803C19.8296 24.4058 20.0335 24.6097 20.0335 24.859V26.8531C20.0335 27.1024 19.8296 27.3063 19.5803 27.3063ZM13.5978 26.3999H19.1271V25.3122H13.5978V26.3999Z" fill="#223256"/>
<path d="M13.1445 26.853H19.5802V28.8472H13.1445V26.853Z" fill="#4FACFE"/>
<path d="M19.5803 29.3005H13.1446C12.8954 29.3005 12.6914 29.0965 12.6914 28.8473V26.8531C12.6914 26.6038 12.8954 26.3999 13.1446 26.3999H19.5803C19.8296 26.3999 20.0335 26.6038 20.0335 26.8531V28.8473C20.0335 29.0965 19.8296 29.3005 19.5803 29.3005ZM13.5978 28.3941H19.1271V27.3063H13.5978V28.3941Z" fill="#223256"/>
<path d="M23.4556 17.7661H30.1405V19.5563H23.4556V17.7661Z" fill="#4FACFE"/>
<path d="M30.1401 20.0096H23.4552C23.2059 20.0096 23.002 19.8057 23.002 19.5564V17.7662C23.002 17.5169 23.2059 17.313 23.4552 17.313H30.1401C30.3894 17.313 30.5933 17.5169 30.5933 17.7662V19.5564C30.5933 19.8057 30.3894 20.0096 30.1401 20.0096ZM23.9084 19.1032H29.6869V18.2194H23.9084V19.1032Z" fill="#223256"/>
<path d="M23.4556 19.5337H30.1405V21.3012H23.4556V19.5337Z" fill="#4FACFE"/>
<path d="M30.1401 21.7545H23.4552C23.2059 21.7545 23.002 21.5506 23.002 21.3013V19.5338C23.002 19.2845 23.2059 19.0806 23.4552 19.0806H30.1401C30.3894 19.0806 30.5933 19.2845 30.5933 19.5338V21.3013C30.5933 21.5506 30.3894 21.7545 30.1401 21.7545ZM23.9084 20.8481H29.6869V19.987H23.9084V20.8481Z" fill="#223256"/>
<path d="M23.4556 23.1592H30.1405V24.9494H23.4556V23.1592Z" fill="#4FACFE"/>
<path d="M30.1401 25.4027H23.4552C23.2059 25.4027 23.002 25.1987 23.002 24.9495V23.1593C23.002 22.91 23.2059 22.7061 23.4552 22.7061H30.1401C30.3894 22.7061 30.5933 22.91 30.5933 23.1593V24.9495C30.5933 25.1987 30.3894 25.4027 30.1401 25.4027ZM23.9084 24.4963H29.6869V23.6125H23.9084V24.4963Z" fill="#223256"/>
<path d="M22.0278 21.3916H28.3049V23.1818H22.0278V21.3916Z" fill="#4FACFE"/>
<path d="M28.305 23.6351H22.0279C21.7787 23.6351 21.5747 23.4312 21.5747 23.1819V21.3917C21.5747 21.1424 21.7787 20.9385 22.0279 20.9385H28.305C28.5542 20.9385 28.7582 21.1424 28.7582 21.3917V23.1819C28.7582 23.4312 28.5542 23.6351 28.305 23.6351ZM22.4811 22.7287H27.8518V21.8449H22.4811V22.7287Z" fill="#223256"/>
<path d="M22.0278 26.9438H28.3049V28.7341H22.0278V26.9438Z" fill="#4FACFE"/>
<path d="M28.305 29.1874H22.0279C21.7787 29.1874 21.5747 28.9834 21.5747 28.7341V26.9439C21.5747 26.6947 21.7787 26.4907 22.0279 26.4907H28.305C28.5542 26.4907 28.7582 26.6947 28.7582 26.9439V28.7341C28.7582 28.9834 28.5542 29.1874 28.305 29.1874ZM22.4811 28.2809H27.8518V27.3972H22.4811V28.2809Z" fill="#223256"/>
<path d="M23.4556 24.9497H30.1405V26.7172H23.4556V24.9497Z" fill="#4FACFE"/>
<path d="M30.1401 27.1706H23.4552C23.2059 27.1706 23.002 26.9666 23.002 26.7173V24.9498C23.002 24.7005 23.2059 24.4966 23.4552 24.4966H30.1401C30.3894 24.4966 30.5933 24.7005 30.5933 24.9498V26.7173C30.5933 26.9666 30.3894 27.1706 30.1401 27.1706ZM23.9084 26.2641H29.6869V25.403H23.9084V26.2641Z" fill="#223256"/>
<path d="M9.33792 8.36194C9.22462 8.36194 9.11131 8.31661 9.02067 8.22597L8.3635 7.56881C8.18222 7.38752 8.18222 7.11559 8.3635 6.9343C8.54479 6.75302 8.81672 6.75302 8.99801 6.9343L9.65517 7.59147C9.83646 7.77276 9.83646 8.04469 9.65517 8.22597C9.56453 8.31661 9.45122 8.36194 9.33792 8.36194Z" fill="#223256"/>
<path d="M6.437 14.9333H5.5079C5.25863 14.9333 5.05469 14.7293 5.05469 14.4801C5.05469 14.2308 5.25863 14.0269 5.5079 14.0269H6.437C6.68627 14.0269 6.89021 14.2308 6.89021 14.4801C6.89021 14.7293 6.68627 14.9333 6.437 14.9333Z" fill="#223256"/>
<path d="M26.3789 14.9333H25.4498C25.2005 14.9333 24.9966 14.7293 24.9966 14.4801C24.9966 14.2308 25.2005 14.0269 25.4498 14.0269H26.3789C26.6282 14.0269 26.8321 14.2308 26.8321 14.4801C26.8321 14.7293 26.6282 14.9333 26.3789 14.9333Z" fill="#223256"/>
<path d="M22.5943 8.36194C22.481 8.36194 22.3677 8.31661 22.2771 8.22597C22.0958 8.04469 22.0958 7.77276 22.2771 7.59147L22.9342 6.9343C23.1155 6.75302 23.3875 6.75302 23.5687 6.9343C23.75 7.11559 23.75 7.38752 23.5687 7.56881L22.9116 8.22597C22.8209 8.31661 22.7076 8.36194 22.5943 8.36194Z" fill="#223256"/>
<path d="M15.6599 4.01074H16.2717C16.6116 4.01074 16.9062 4.28267 16.9062 4.64525V14.5933C16.9062 14.9333 16.6343 15.2278 16.2717 15.2278H15.6599C15.32 15.2278 15.0254 14.9559 15.0254 14.5933V4.64525C15.0254 4.30533 15.2973 4.01074 15.6599 4.01074Z" fill="#4FACFE"/>
<path d="M16.2718 15.6812H15.66C15.0708 15.6812 14.5723 15.2053 14.5723 14.5934V4.64534C14.5723 4.05615 15.0481 3.55762 15.66 3.55762H16.2718C16.861 3.55762 17.3595 4.03349 17.3595 4.64534V14.5934C17.3369 15.2053 16.861 15.6812 16.2718 15.6812ZM15.66 4.46405C15.5693 4.46405 15.4787 4.55469 15.4787 4.64534V14.5934C15.4787 14.6841 15.5693 14.7747 15.66 14.7747H16.2718C16.3625 14.7747 16.4531 14.6841 16.4531 14.5934V4.64534C16.4531 4.55469 16.3625 4.46405 16.2718 4.46405H15.66Z" fill="#223256"/>
<path d="M22.934 14.1858V15.0469C22.934 15.3188 22.7074 15.5681 22.4128 15.5681H16.1584C15.8865 15.5681 15.6372 15.3415 15.6372 15.0469V14.1858C15.6372 13.9138 15.8638 13.6646 16.1584 13.6646H22.4128C22.7074 13.6646 22.934 13.8912 22.934 14.1858Z" fill="#4FACFE"/>
<path d="M22.4129 15.9984H16.1585C15.6373 15.9984 15.1841 15.5679 15.1841 15.024V14.1629C15.1841 13.6417 15.6146 13.1885 16.1585 13.1885H22.4129C22.9341 13.1885 23.3873 13.619 23.3873 14.1629V15.024C23.3873 15.5679 22.9567 15.9984 22.4129 15.9984ZM16.1585 14.1176C16.1358 14.1176 16.0905 14.1402 16.0905 14.1856V15.0467C16.0905 15.0693 16.1132 15.1146 16.1585 15.1146H22.4129C22.4355 15.1146 22.4809 15.092 22.4809 15.0467V14.1856C22.4809 14.1629 22.4582 14.1176 22.4129 14.1176H16.1585Z" fill="#223256"/>
<path d="M14.6855 14.4805C14.6855 14.8471 14.8312 15.1987 15.0904 15.4579C15.3496 15.7171 15.7012 15.8628 16.0679 15.8628C16.4345 15.8628 16.7861 15.7171 17.0453 15.4579C17.3045 15.1987 17.4502 14.8471 17.4502 14.4805C17.4502 14.1138 17.3045 13.7622 17.0453 13.503C16.7861 13.2438 16.4345 13.0981 16.0679 13.0981C15.7012 13.0981 15.3496 13.2438 15.0904 13.503C14.8312 13.7622 14.6855 14.1138 14.6855 14.4805Z" fill="white"/>
<path d="M16.0679 16.3156C15.0482 16.3156 14.2324 15.4998 14.2324 14.4801C14.2324 13.4603 15.0482 12.6445 16.0679 12.6445C17.0877 12.6445 17.9035 13.4603 17.9035 14.4801C17.9035 15.4998 17.0877 16.3156 16.0679 16.3156ZM16.0679 13.551C15.5467 13.551 15.1389 13.9589 15.1389 14.4801C15.1389 15.0013 15.5467 15.4092 16.0679 15.4092C16.5891 15.4092 16.997 15.0013 16.997 14.4801C16.997 13.9589 16.5665 13.551 16.0679 13.551Z" fill="#223256"/>
<path d="M6.3916 25.4934C6.3916 25.896 6.55156 26.2822 6.83629 26.567C7.12103 26.8517 7.5072 27.0116 7.90988 27.0116C8.31255 27.0116 8.69873 26.8517 8.98346 26.567C9.26819 26.2822 9.42815 25.896 9.42815 25.4934C9.42815 25.0907 9.26819 24.7045 8.98346 24.4198C8.69873 24.1351 8.31255 23.9751 7.90988 23.9751C7.5072 23.9751 7.12103 24.1351 6.83629 24.4198C6.55156 24.7045 6.3916 25.0907 6.3916 25.4934Z" fill="#4FACFE"/>
<path d="M7.90997 27.465C6.82225 27.465 5.93848 26.5812 5.93848 25.4935C5.93848 24.4057 6.82225 23.522 7.90997 23.522C8.99769 23.522 9.88146 24.4057 9.88146 25.4935C9.88146 26.5812 8.99769 27.465 7.90997 27.465ZM7.90997 24.4511C7.32079 24.4511 6.84491 24.9269 6.84491 25.5161C6.84491 26.1053 7.32079 26.5812 7.90997 26.5812C8.49915 26.5812 8.97503 26.1053 8.97503 25.5161C8.97503 24.9269 8.49915 24.4511 7.90997 24.4511Z" fill="#223256"/>
</g>
<defs>
<clipPath id="clip0_2493_2324">
<rect width="31" height="31" fill="white" transform="translate(0.5)"/>
</clipPath>
</defs>
</svg>
