<svg width="32" height="31" viewBox="0 0 32 31" fill="none" xmlns="http://www.w3.org/2000/svg">
<path d="M23.0943 14.9038C19.1001 14.9038 15.8809 18.1827 15.8809 22.1769C15.8809 26.1711 19.1001 29.3903 23.0943 29.3903C27.0886 29.3903 30.3078 26.1115 30.3078 22.1769C30.3078 18.2423 27.0886 14.9038 23.0943 14.9038ZM28.1616 22.8923H22.9155V17.348C22.9155 17.348 24.8828 17.2288 26.6712 19.0769C28.4597 20.925 28.1616 22.8923 28.1616 22.8923Z" fill="#223256"/>
<path d="M13.7348 22.2365C13.7348 20.6269 14.2713 18.7192 15.106 17.2884C16.1194 15.5 17.2521 14.7846 18.1463 13.4134C19.6367 11.2076 19.9348 7.98841 18.981 5.6038C18.0271 3.15957 15.7617 1.7288 13.079 1.78841C10.456 1.84803 8.2502 3.45764 7.41558 5.96149C6.46174 8.64418 6.87904 11.923 9.0252 13.95C9.91943 14.7846 10.754 16.0961 10.2771 17.4076C9.85981 18.6 8.42904 19.1365 7.41558 19.6134C5.09058 20.6269 2.22904 22.0576 1.75212 24.8596C1.2752 27.125 2.8252 29.5096 5.26943 29.5096H15.4637C15.9406 29.5096 16.2387 28.9134 15.9406 28.5557C14.5694 26.7673 13.7348 24.5615 13.7348 22.2365Z" fill="#223256"/>
</svg>
