<svg width="38" height="31" viewBox="0 0 38 31" fill="none" xmlns="http://www.w3.org/2000/svg">
<path d="M23.75 24.7V28.5H36.1V24.7H23.75ZM16.15 22.8H28.5V19H16.15V22.8ZM9.5 17.1H21.85V13.3H9.5V17.1ZM16.15 11.4H28.5V7.6H16.15V11.4ZM21.85 28.5V24.7H9.5V28.5H21.85ZM23.75 13.3V17.1H36.1V13.3H23.75ZM1.9 22.8H14.25V19H1.9V22.8ZM9.5 1.9V5.7H14.2172C14.287 5.69593 14.3569 5.69606 14.4265 5.7H15.9735C16.0431 5.69606 16.113 5.69593 16.1828 5.7H21.85V1.9H9.5ZM1.9 11.4H9.32354C9.39314 11.3961 9.46301 11.3959 9.53284 11.4H14.25V7.6H1.9V11.4ZM23.75 5.7H28.4672C28.6849 5.68732 28.903 5.71377 29.1114 5.77798L29.1559 5.79231L29.2 5.80776C29.4047 5.88253 29.5945 5.99338 29.7603 6.13506L29.7954 6.16591L29.8298 6.19759C29.9881 6.34756 30.1183 6.52465 30.2141 6.72046L30.2341 6.76272L30.253 6.80544C30.3449 7.02024 30.3948 7.25079 30.3998 7.48464L30.4 7.49484V11.4H36.1C36.6039 11.4 37.0872 11.6002 37.4435 11.9565C37.7998 12.3128 38 12.7961 38 13.3V17.1C38 17.6039 37.7998 18.0872 37.4435 18.4435C37.0872 18.7998 36.6039 19 36.1 19H30.4V22.8H36.1C36.6039 22.8 37.0872 23.0002 37.4435 23.3565C37.7998 23.7128 38 24.1961 38 24.7V28.5C38 29.0039 37.7998 29.4872 37.4435 29.8435C37.0872 30.1998 36.6039 30.4 36.1 30.4H9.5C8.99609 30.4 8.51282 30.1998 8.1565 29.8435C7.80018 29.4872 7.6 29.0039 7.6 28.5V24.7H1.9C1.39609 24.7 0.912822 24.4998 0.556501 24.1435C0.200181 23.7872 0 23.3039 0 22.8V19C0 18.4961 0.200181 18.0128 0.556501 17.6565C0.912822 17.3002 1.39609 17.1 1.9 17.1H7.6V13.3H1.9C1.39609 13.3 0.912822 13.0998 0.556501 12.7435C0.200181 12.3872 0 11.9039 0 11.4V7.6C0 7.09609 0.200181 6.61282 0.556501 6.2565C0.912822 5.90018 1.39609 5.7 1.9 5.7H7.6V1.9C7.6 1.39609 7.80018 0.912822 8.1565 0.556501C8.51282 0.200181 8.99609 0 9.5 0H21.85C22.3539 0 22.8372 0.200181 23.1935 0.556501C23.5498 0.912822 23.75 1.39609 23.75 1.9V5.7Z" fill="white"/>
</svg>
