<svg width="38" height="38" viewBox="0 0 38 38" fill="none" xmlns="http://www.w3.org/2000/svg">
<path fill-rule="evenodd" clip-rule="evenodd" d="M28.3517 1.60468C27.5782 0.370071 26.1077 -0.239081 24.6875 0.0869749L19.7655 1.21731C19.2618 1.333 18.7383 1.333 18.2346 1.21731L13.3123 0.0869749C11.8924 -0.239081 10.4217 0.370071 9.64827 1.60468L6.96703 5.88441C6.69261 6.32246 6.32247 6.6926 5.88442 6.96705L1.60467 9.64826C0.370057 10.4218 -0.239097 11.8924 0.086987 13.3123L1.21729 18.2345C1.33301 18.7383 1.33301 19.2617 1.21732 19.7655L0.086987 24.6878C-0.239097 26.1076 0.370057 27.5781 1.60467 28.3517L5.88442 31.033C6.32247 31.3074 6.69261 31.6774 6.96703 32.1154L9.64827 36.3953C10.4217 37.6299 11.8924 38.239 13.3123 37.9131L18.2346 36.7827C18.7383 36.667 19.2618 36.667 19.7655 36.7827L24.6875 37.9131C26.1077 38.239 27.5782 37.6299 28.3517 36.3953L31.033 32.1154C31.3075 31.6776 31.6774 31.3074 32.1155 31.033L36.3953 28.3517C37.6299 27.5781 38.239 26.1076 37.9129 24.6878L36.7828 19.7655C36.667 19.2617 36.667 18.7383 36.7828 18.2345L37.9129 13.3123C38.239 11.8924 37.6299 10.4218 36.3953 9.64826L32.1155 6.96705C31.6774 6.6926 31.3075 6.32246 31.033 5.88441L28.3517 1.60468ZM26.9762 12.8969C27.3604 12.2463 27.1445 11.4074 26.4938 11.0232C25.8431 10.6389 25.0041 10.8549 24.62 11.5055L17.4676 23.6165L13.147 19.479C12.6013 18.9563 11.7352 18.975 11.2126 19.5206C10.69 20.0665 10.7087 20.9325 11.2544 21.4551L16.8218 26.7865C17.1233 27.0757 17.5406 27.2109 17.9546 27.154C18.3684 27.0968 18.7337 26.8541 18.946 26.4943L26.9762 12.8969Z" fill="white"/>
</svg>
