<svg width="38" height="38" viewBox="0 0 38 38" fill="none" xmlns="http://www.w3.org/2000/svg">
<path fill-rule="evenodd" clip-rule="evenodd" d="M30.071 12.784C29.7165 13.145 29.3586 13.4635 29.0344 13.7305C28.7218 13.4726 28.3776 13.1611 28.0373 12.8056C26.8934 11.6106 26.125 10.2724 26.125 9.00521C26.125 7.26969 27.4951 5.9375 29.0938 5.9375C30.6924 5.9375 32.0625 7.26969 32.0625 9.00521C32.0625 10.2319 31.2731 11.5595 30.071 12.784ZM34.4375 9.00521C34.4375 13.3594 29.0938 16.625 29.0938 16.625C28.8266 16.625 23.75 13.3594 23.75 9.00521C23.75 5.99928 26.1424 3.5625 29.0938 3.5625C32.0451 3.5625 34.4375 5.99928 34.4375 9.00521ZM5.9375 14.25C5.9375 16.2175 7.53249 17.8125 9.5 17.8125H28.5C31.7792 17.8125 34.4375 20.4708 34.4375 23.75C34.4375 27.0292 31.7792 29.6875 28.5 29.6875H15.4375V27.3125H28.5C30.4675 27.3125 32.0625 25.7175 32.0625 23.75C32.0625 21.7826 30.4675 20.1875 28.5 20.1875H9.5C6.22081 20.1875 3.5625 17.5292 3.5625 14.25C3.5625 10.9708 6.22081 8.3125 9.5 8.3125H22.5625V10.6875H9.5C7.53249 10.6875 5.9375 12.2825 5.9375 14.25ZM9.8834 30.5965C9.52896 30.9575 9.17121 31.2761 8.84691 31.543C8.53434 31.2851 8.19011 30.9736 7.8498 30.618C6.70586 29.4231 5.9375 28.085 5.9375 26.8177C5.9375 25.0822 7.30754 23.75 8.90625 23.75C10.505 23.75 11.875 25.0822 11.875 26.8177C11.875 28.0445 11.0856 29.3721 9.8834 30.5965ZM14.25 26.8177C14.25 31.1719 8.90625 34.4375 8.90625 34.4375C8.63906 34.4375 3.5625 31.1719 3.5625 26.8177C3.5625 23.8118 5.95498 21.375 8.90625 21.375C11.8575 21.375 14.25 23.8118 14.25 26.8177ZM10.6875 26.7188C10.6875 27.7025 9.89001 28.5 8.90625 28.5C7.92249 28.5 7.125 27.7025 7.125 26.7188C7.125 25.735 7.92249 24.9375 8.90625 24.9375C9.89001 24.9375 10.6875 25.735 10.6875 26.7188ZM29.0938 10.6875C30.0775 10.6875 30.875 9.89001 30.875 8.90625C30.875 7.92249 30.0775 7.125 29.0938 7.125C28.11 7.125 27.3125 7.92249 27.3125 8.90625C27.3125 9.89001 28.11 10.6875 29.0938 10.6875Z" fill="white"/>
</svg>
