<svg width="36" height="38" viewBox="0 0 36 38" fill="none" xmlns="http://www.w3.org/2000/svg">
<path d="M1.94922 30.2051L1.95371 22.4518C1.95459 21.9139 2.39073 21.478 2.92863 21.4774C6.1771 21.4774 9.42562 21.4774 12.6741 21.4774C13.572 21.4774 13.5672 20.681 13.5672 18.7849C13.5672 16.8888 8.79131 15.2917 8.79131 8.62581C8.79131 1.95993 13.7389 0 17.8508 0C21.9627 0 26.4413 1.95993 26.4413 8.62581C26.4413 15.2917 21.6905 16.3515 21.6905 18.7849C21.6905 21.2181 21.6905 21.4774 22.4511 21.4774C25.6855 21.4774 28.9201 21.4774 32.1547 21.4774C32.6927 21.4774 33.1291 21.9137 33.1291 22.4518V30.2051H1.94922Z" fill="white"/>
<path d="M33.1282 34.1025C34.2044 34.1025 35.077 34.975 35.077 36.0512C35.077 37.1275 34.2044 37.9999 33.1282 37.9999H1.9487C0.872452 37.9999 0 37.1275 0 36.0512C0 34.975 0.872452 34.1025 1.9487 34.1025H33.1282Z" fill="white"/>
</svg>
