<svg width="19" height="32" viewBox="0 0 19 32" fill="none" xmlns="http://www.w3.org/2000/svg">
<path d="M18.7449 15.4153C18.6864 15.2004 18.5837 15.0005 18.4437 14.8286C18.3036 14.6567 18.1293 14.5167 17.9322 14.4178L12.6335 11.7578L14.0558 1.79863C14.1026 1.45348 14.0357 1.10233 13.8654 0.799616C13.6952 0.496898 13.4312 0.259508 13.1142 0.124232C12.7973 -0.0110437 12.4452 -0.0366519 12.1124 0.0513754C11.7796 0.139403 11.4848 0.336151 11.2736 0.611131L0.332394 14.8611C0.183885 15.0533 0.0812211 15.2775 0.0324168 15.5165C-0.0163875 15.7554 -0.0100113 16.0026 0.0510481 16.2386C0.120043 16.4748 0.239968 16.6925 0.402156 16.8759C0.564344 17.0594 0.764742 17.204 0.988869 17.2995L7.66302 20.007L6.24066 29.8553C6.19231 30.2088 6.26326 30.5684 6.442 30.876C6.62074 31.1835 6.89678 31.4208 7.22538 31.5495C7.40854 31.6264 7.60544 31.6641 7.8037 31.6603C8.06114 31.6589 8.31427 31.5932 8.54059 31.4689C8.76691 31.3446 8.95942 31.1656 9.10102 30.9478L18.4792 16.6978C18.6113 16.5156 18.7034 16.3069 18.7492 16.0857C18.795 15.8645 18.7936 15.6359 18.7449 15.4153Z" fill="white"/>
</svg>
