<svg width="32" height="31" viewBox="0 0 32 31" fill="none" xmlns="http://www.w3.org/2000/svg">
<g clip-path="url(#clip0_2516_598)">
<g clip-path="url(#clip1_2516_598)">
<path d="M30.6261 13.0276L27.2752 12.2366C27.031 11.3923 26.7003 10.5855 26.2836 9.831L28.091 6.9064C28.3677 6.45854 28.3 5.88037 27.9282 5.50862L25.9913 3.57172C25.6202 3.20063 25.0421 3.13288 24.5941 3.40958L21.6702 5.21696C20.9157 4.80028 20.109 4.46957 19.2646 4.22538L18.4736 0.873025C18.3525 0.361949 17.8954 0 17.3701 0H14.6311C14.1057 0 13.6486 0.361949 13.5275 0.873025L12.7365 4.22538C11.8921 4.46951 11.0854 4.79961 10.3309 5.21696L7.40628 3.4083C6.95902 3.13288 6.38025 3.19996 6.00849 3.57172L4.07154 5.50795C3.70039 5.87971 3.63269 6.45908 3.90873 6.9058L5.71678 9.831C5.3001 10.5855 4.96939 11.3923 4.72581 12.236L1.37284 13.027C0.861827 13.1487 0.499878 13.6051 0.499878 14.1312V16.8694C0.499878 17.3949 0.861827 17.8525 1.3729 17.973L4.72587 18.764C4.96999 19.6084 5.30016 20.4145 5.71684 21.1683L3.90818 24.0942C3.63275 24.5421 3.69984 25.1209 4.0716 25.4927L6.00783 27.4289C6.37958 27.8007 6.95896 27.8683 7.40567 27.5917L10.3315 25.783C11.0861 26.1997 11.8927 26.5304 12.7365 26.7739L13.5275 30.1262C13.6486 30.6386 14.1057 30.9999 14.6311 30.9999H17.3701C17.8954 30.9999 18.3525 30.6386 18.4736 30.1262L19.2646 26.7739C20.1084 26.5305 20.915 26.1997 21.669 25.783L24.5941 27.591C25.0421 27.8677 25.6202 27.8 25.992 27.4283L27.9288 25.4914C28.3 25.1203 28.3677 24.5415 28.091 24.0935L26.283 21.169C26.7003 20.4151 27.0304 19.6085 27.2746 18.764L30.6268 17.973C31.1392 17.8518 31.4999 17.3954 31.4999 16.8694V14.1304C31.4999 13.6057 31.1385 13.1487 30.6261 13.0276ZM16.0002 18.3519C14.4259 18.3519 13.1486 17.0746 13.1486 15.4997C13.1486 13.9248 14.426 12.6475 16.0002 12.6475C17.5751 12.6475 18.8525 13.9248 18.8525 15.4997C18.8525 17.0746 17.5751 18.3519 16.0002 18.3519Z" fill="#223256"/>
</g>
</g>
<defs>
<clipPath id="clip0_2516_598">
<rect width="31" height="31" fill="white" transform="translate(0.5)"/>
</clipPath>
<clipPath id="clip1_2516_598">
<rect width="31" height="31" fill="white" transform="translate(0.499878)"/>
</clipPath>
</defs>
</svg>
