<svg width="32" height="31" viewBox="0 0 32 31" fill="none" xmlns="http://www.w3.org/2000/svg">
<path d="M26.3333 17.7606C26.3333 17.2256 25.8996 16.7918 25.3646 16.7918H21.4896C20.9546 16.7918 20.5208 17.2256 20.5208 17.7606V26.4793H18.5833V5.48975C18.5833 4.54901 18.5813 3.94092 18.5211 3.49287C18.4645 3.07268 18.3733 2.94098 18.2995 2.86724C18.2258 2.7935 18.0942 2.70229 17.674 2.64579C17.2259 2.58555 16.6178 2.5835 15.6771 2.5835C14.7364 2.5835 14.1282 2.58555 13.6802 2.64579C13.26 2.70229 13.1283 2.7935 13.0546 2.86724C12.9808 2.94098 12.8896 3.07268 12.8331 3.49287C12.7729 3.94092 12.7708 4.54901 12.7708 5.48975V26.4793H10.8333V11.3022C10.8333 10.7672 10.3996 10.3335 9.86457 10.3335H5.98957C5.45455 10.3335 5.02082 10.7672 5.02082 11.3022V26.4793H3.08332H2.76041C2.22539 26.4793 1.79166 26.9131 1.79166 27.4481C1.79166 27.9831 2.22539 28.4168 2.76041 28.4168H28.5937C29.1287 28.4168 29.5625 27.9831 29.5625 27.4481C29.5625 26.9131 29.1287 26.4793 28.5937 26.4793H28.2708H26.3333V17.7606Z" fill="#223256"/>
</svg>
