<svg width="32" height="31" viewBox="0 0 32 31" fill="none" xmlns="http://www.w3.org/2000/svg">
<path d="M30.4344 5.42502C30.3375 5.03752 29.95 4.84377 29.5625 4.84377H26.6563V1.93752C26.6563 1.55002 26.4625 1.16252 26.075 1.06564C25.6875 0.871894 25.3 0.968769 25.0094 1.25939L21.1344 5.13439C20.9406 5.32815 20.8438 5.52189 20.8438 5.81252V9.30002L15.3219 14.8219C14.9344 15.2094 14.9344 15.7906 15.3219 16.1781C15.5156 16.3719 15.8062 16.4688 16 16.4688C16.1938 16.4688 16.4844 16.3719 16.6781 16.1781L22.2 10.6563H25.6875C25.9781 10.6563 26.1719 10.5594 26.3656 10.3656L30.2406 6.49064C30.5313 6.20002 30.6281 5.81252 30.4344 5.42502Z" fill="#223256"/>
<path d="M18.0344 17.5344C17.55 18.1156 16.775 18.4062 16 18.4062C15.225 18.4062 14.45 18.1156 13.9656 17.5344C12.8031 16.3719 12.8031 14.5312 13.9656 13.4656L16.6781 10.7531C16.4844 10.6563 16.1937 10.6562 16 10.6562C13.2875 10.6562 11.1562 12.7875 11.1562 15.5C11.1562 18.2125 13.2875 20.3438 16 20.3438C18.7125 20.3438 20.8438 18.2125 20.8438 15.5C20.8438 15.3063 20.8438 15.0156 20.7469 14.8219L18.0344 17.5344Z" fill="#223256"/>
<path d="M27.7219 11.7219C27.2375 12.3031 26.4625 12.5938 25.6875 12.5938H22.975L22.2969 13.2719C22.5875 13.95 22.6844 14.725 22.6844 15.5C22.6844 19.2781 19.6812 22.2812 15.9031 22.2812C12.125 22.2812 9.12187 19.2781 9.12187 15.5C9.12187 11.7219 12.125 8.71875 15.9031 8.71875C16.6781 8.71875 17.4531 8.9125 18.1313 9.10625L18.9062 8.525V5.8125C18.9062 5.0375 19.1969 4.2625 19.7781 3.77813L20.7469 2.80938C19.1969 2.22813 17.6469 1.9375 16 1.9375C8.54063 1.9375 2.4375 8.04063 2.4375 15.5C2.4375 22.9594 8.54063 29.0625 16 29.0625C23.4594 29.0625 29.5625 22.9594 29.5625 15.5C29.5625 13.8531 29.2719 12.3031 28.6906 10.7531L27.7219 11.7219Z" fill="#223256"/>
</svg>
