<svg width="32" height="31" viewBox="0 0 32 31" fill="none" xmlns="http://www.w3.org/2000/svg">
<g clip-path="url(#clip0_2518_625)">
<path d="M28.1094 4.06861C27.7763 3.85312 27.3954 3.72276 27.0001 3.68897C26.6048 3.65519 26.2073 3.71902 25.8425 3.87486L13.8881 8.58298C13.6051 8.69817 13.3024 8.75738 12.9969 8.75736H5.34375C4.70143 8.75736 4.08542 9.01252 3.63123 9.46671C3.17704 9.9209 2.92188 10.5369 2.92188 11.1792V11.373H0.5V17.1855H2.92188V17.4374C2.93705 18.0696 3.1989 18.6707 3.65145 19.1124C4.10401 19.5541 4.71137 19.8013 5.34375 19.8011L8.25 25.9624C8.44679 26.3773 8.75662 26.7282 9.14389 26.975C9.53116 27.2218 9.98018 27.3543 10.4394 27.3574H11.66C12.299 27.3522 12.91 27.0948 13.36 26.6412C13.81 26.1876 14.0625 25.5745 14.0625 24.9355V20.0336L25.8425 24.7417C26.1322 24.857 26.4413 24.9162 26.7531 24.9161C27.2369 24.9083 27.7081 24.7602 28.1094 24.4899C28.428 24.2747 28.6909 23.9867 28.8762 23.6498C29.0615 23.3129 29.1639 22.9367 29.175 22.5524V6.06423C29.1732 5.66998 29.0752 5.28213 28.8895 4.93435C28.7038 4.58657 28.436 4.28939 28.1094 4.06861ZM11.6406 11.1792V17.4374H5.34375V11.1792H11.6406ZM11.6406 24.9355H10.42L8.03688 19.8011H11.6406V24.9355ZM14.7794 17.728C14.5493 17.6104 14.3095 17.5132 14.0625 17.4374V11.0436C14.3071 10.9931 14.5469 10.9218 14.7794 10.8305L26.7531 6.06423V22.4942L14.7794 17.728ZM29.2331 11.8574V16.7011C29.8754 16.7011 30.4915 16.4459 30.9456 15.9918C31.3998 15.5376 31.655 14.9216 31.655 14.2792C31.655 13.6369 31.3998 13.0209 30.9456 12.5667C30.4915 12.1125 29.8754 11.8574 29.2331 11.8574Z" fill="#223256"/>
</g>
<defs>
<clipPath id="clip0_2518_625">
<rect width="31" height="31" fill="white" transform="translate(0.5)"/>
</clipPath>
</defs>
</svg>
