<svg width="32" height="31" viewBox="0 0 32 31" fill="none" xmlns="http://www.w3.org/2000/svg">
<path d="M24.8488 11.1847C25.8656 9.6213 25.4225 7.52965 23.8591 6.51287C22.2957 5.49609 20.2041 5.93922 19.1873 7.50262L15.5052 13.1642C14.4884 14.7276 14.9316 16.8193 16.495 17.836C18.0584 18.8528 20.15 18.4097 21.1668 16.8463L24.8488 11.1847ZM23.9975 18.6873C21.964 21.8141 17.7807 22.7004 14.6539 20.6668C11.5271 18.6333 10.6409 14.45 12.6744 11.3232L16.3565 5.66158C18.3901 2.53478 22.5733 1.64853 25.7001 3.68208C28.8269 5.71564 29.7132 9.89894 27.6796 13.0257L23.9975 18.6873Z" fill="#223256"/>
<path d="M16.4948 17.8356C17.5116 16.2722 17.0685 14.1805 15.5051 13.1638C13.9417 12.147 11.8501 12.5901 10.8333 14.1535L7.15121 19.8151C6.13444 21.3785 6.57756 23.4701 8.14095 24.4869C9.70435 25.5037 11.796 25.0606 12.8128 23.4972L16.4948 17.8356ZM15.6435 25.3382C13.61 28.465 9.42671 29.3513 6.29992 27.3177C3.17313 25.2841 2.28688 21.1008 4.32043 17.974L8.0025 12.3125C10.0361 9.18565 14.2193 8.2994 17.3461 10.333C20.4729 12.3665 21.3592 16.5498 19.3256 19.6766L15.6435 25.3382Z" fill="#223256"/>
</svg>
